<svg xmlns="http://www.w3.org/2000/svg" style = "display:none">
	<defs>
		<symbol id = "icon-bell" viewBox = "0 0 33.8 40">
			<path id="bell-body" d="M16.9,0c0.2,0,0.5,0,0.7,0.1c1.6,0.3,2.6,1.6,2.6,3.1c0,0.4,0,0.9,0,1.3c0,0.1,0,0.2,0.2,0.2
			c2,0.5,3.8,1.4,5.3,2.8c1.5,1.4,2.4,3,3,4.8c0.4,1.3,0.5,2.5,0.5,3.8c0,3,0,6,0,9c0.5,2.3,1.6,4.2,3,6.1c0.4,0.6,0.9,1.2,1.3,1.8c0.5,0.7,0.1,1.5-0.7,1.7c-0.1,0-0.2,0-0.2,0c-10.5,0-21,0-31.4,0c-0.5,0-0.8-0.2-1-0.5c-0.2-0.4-0.2-0.7,0.1-1.1c0.7-0.9,1.3-1.8,2-2.8c1-1.5,1.8-3.2,2.2-5c0.1-0.5,0.1-1,0.1-1.4c0-2.6,0-5.2,0-7.8c0-1.6,0.2-3.1,0.8-4.5c1.1-2.8,3-4.8,5.8-6.1c0.7-0.3,1.5-0.6,2.3-0.8c0.1,0,0.2-0.1,0.2-0.2c0-0.5,0-1.1,0-1.6c0.1-1.4,1.3-2.6,2.7-2.8C16.5,0,16.7,0,16.9,0C16.9,0,16.9,0,16.9,0z"/>

			<path id="bell" d="M16.5,40c-0.4-0.1-0.8-0.1-1.2-0.2c-1.9-0.5-3.3-1.6-4.2-3.2c0,0,0-0.1-0.1-0.1c3.8,0,7.7,0,11.5,0
			c-0.2,0.5-0.5,0.9-0.8,1.3c-1.1,1.3-2.5,2-4.2,2.2c-0.1,0-0.3,0-0.4,0C17,40,16.7,40,16.5,40z"/>
		</symbol>

		<symbol id = "icon-gear" viewBox = "0 0 10 10">
			<path id="gear" d="M5.5,0c0.1,0,0.1,0,0.2,0s0.1,0,0.2,0c0.3,0.1,0.7,0.2,1,0.3C7,0.4,7,0.5,7,0.5c0,0.1,0,0.3,0,0.4s0,0.2,0,0.3
			c0.1,0.3,0.4,0.5,0.7,0.7C7.9,2,8.2,2,8.4,1.9c0.1,0,0.2-0.1,0.3-0.1s0.1,0,0.2,0.1c0.2,0.3,0.4,0.6,0.6,1c0.2,0.3,0.1,0.4-0.2,0.6
			c0,0,0,0-0.1,0C9.1,3.8,9.2,3.7,9.1,3.8C9,4.1,9,4.4,9.1,4.8C9.2,5,9.3,5.1,9.4,5.2C9.6,5.3,9.8,5.4,10,5.5c0,0.1,0,0.2,0,0.2v0.1
			C9.9,6.2,9.7,6.6,9.6,6.9C9.6,7,9.6,7,9.5,7C9.3,7,9.2,7,9.1,7C9,7,8.9,7,8.8,7C8.4,7.1,8.2,7.4,8,7.7C7.9,8,7.9,8.2,8.1,8.5
			c0,0.1,0.1,0.1,0.1,0.2c0,0.1,0,0.2-0.2,0.3C7.7,9.3,7.3,9.5,6.9,9.6c-0.1,0-0.1,0-0.2,0C6.6,9.5,6.5,9.4,6.5,9.3
			C6.4,9.2,6.3,9.1,6.2,9.1C5.9,9,5.6,9,5.3,9.1C5,9.2,4.8,9.3,4.7,9.6c0,0.1-0.1,0.2-0.1,0.3C4.5,10,4.5,10,4.4,10
			C4,9.9,3.6,9.8,3.3,9.7C3,9.6,2.9,9.5,3,9.2V9.1C3,9,3,8.8,3,8.7C2.9,8.4,2.7,8.2,2.4,8.1C2.1,7.9,1.8,7.9,1.5,8
			C1.4,8,1.3,8.1,1.2,8.1C1.1,8.2,1,8.1,1,8C0.8,7.7,0.6,7.4,0.4,7.1C0.3,6.8,0.3,6.7,0.6,6.5c0,0,0,0,0.1,0C0.9,6.3,1,6.1,1.1,5.8
			c0.1-0.4-0.1-0.9-0.5-1C0.4,4.7,0.2,4.6,0,4.5c0-0.1,0-0.2,0-0.2V4.2c0.1-0.3,0.2-0.7,0.3-1C0.3,3.1,0.4,3,0.5,3s0.3,0,0.4,0
			s0.2,0,0.3,0C1.6,2.8,1.8,2.5,2,2.2C2,2,2.1,1.8,2,1.6C1.9,1.5,1.9,1.3,1.9,1.2C1.9,1.1,1.9,1,2,1c0.3-0.2,0.6-0.4,0.9-0.5
			c0.3-0.2,0.4-0.1,0.7,0.2l0,0c0.1,0.1,0.1,0.2,0.2,0.2C4.1,1,4.4,1,4.7,0.9c0.2-0.1,0.4-0.2,0.5-0.4C5.3,0.4,5.4,0.2,5.5,0z
	 		M5.1,2.3C3.6,2.3,2.4,3.5,2.4,5c0,1.4,1.2,2.6,2.7,2.6c1.4,0,2.6-1.2,2.6-2.7C7.7,3.5,6.5,2.3,5.1,2.3z"/>
		</symbol>

		<symbol id = "7segment" viewBox = "0 0 42.8 78.3">
			<polygon id="A" class="segment" points="35.5,6.5 7.5,6.5 4,3.2 7.5,0 35.5,0 39,3.2 "/>
			<polygon id="B" class="segment" points="42.8,7.4 42.8,35.5 39.6,38.9 36.3,35.5 36.3,7.4 39.6,4 "/>
			<polygon id="C" class="segment" points="42.8,42.8 42.8,70.9 39.6,74.4 36.3,70.9 36.3,42.8 39.6,39.4 "/>
			<polygon id="D" class="segment" points="35.5,78.3 7.5,78.3 4,75.1 7.5,71.8 35.5,71.8 39,75.1 "/>
			<polygon id="E" class="segment" points="6.5,42.8 6.5,70.9 3.2,74.4 0,70.9 0,42.8 3.2,39.4 "/>
			<polygon id="F" class="segment" points="6.5,7.4 6.5,35.5 3.2,38.9 0,35.5 0,7.4 3.2,4 "/>
			<polygon id="G" class="segment" points="35.5,42.4 7.5,42.4 4,39.2 7.5,35.9 35.5,35.9 39,39.2 "/>
		</symbol>

		<symbol id = "7segment-colon" viewBox = "0 0 10 40">
			<circle class = "timer-colon" cx="5" cy="5" r="4"/>
			<circle class = "timer-colon" cx="5" cy="35" r="4"/>
		</symbol>
	</defs>
</svg>

