 
<svg version="1.1" id="_x37__x5F_Segment" xmlns="http://www.w3.org/2000/svg" xmlns:xlink="http://www.w3.org/1999/xlink" x="0px"
	 y="0px" viewBox="0 0 42.8 78.3" style="enable-background:new 0 0 42.8 78.3;" xml:space="preserve">
<style type="text/css">
	.segment{fill:#1E1E1E;
	stroke: green;
  stroke-width: 1.2;
  stroke-linecap: round;
  stroke-dasharray: 0.01;
	transition: ease 0.6s;
	}
</style>
<polygon id="A" class="segment" points="35.5,6.5 7.5,6.5 4,3.2 7.5,0 35.5,0 39,3.2 "/>
<polygon id="B" class="segment" points="42.8,7.4 42.8,35.5 39.6,38.9 36.3,35.5 36.3,7.4 39.6,4 "/>
<polygon id="C" class="segment" points="42.8,42.8 42.8,70.9 39.6,74.4 36.3,70.9 36.3,42.8 39.6,39.4 "/>
<polygon id="D" class="segment" points="35.5,78.3 7.5,78.3 4,75.1 7.5,71.8 35.5,71.8 39,75.1 "/>
<polygon id="E" class="segment" points="6.5,42.8 6.5,70.9 3.2,74.4 0,70.9 0,42.8 3.2,39.4 "/>
<polygon id="F" class="segment" points="6.5,7.4 6.5,35.5 3.2,38.9 0,35.5 0,7.4 3.2,4 "/>
<polygon id="G" class="segment" points="35.5,42.4 7.5,42.4 4,39.2 7.5,35.9 35.5,35.9 39,39.2 "/>
</svg>
