<?xml version="1.0" encoding="utf-8"?>
<!-- Generator: Adobe Illustrator 20.1.0, SVG Export Plug-In . SVG Version: 6.00 Build 0)  -->
<svg version="1.1" id="Bell" xmlns="http://www.w3.org/2000/svg" xmlns:xlink="http://www.w3.org/1999/xlink" x="0px" y="0px"
	 viewBox="0 0 35.8 35.8" style="enable-background:new 0 0 35.8 35.8;" xml:space="preserve">
<g>
	<path d="M0,17.5c0-0.2,0.1-0.4,0.1-0.5c0.4-1.5,1.7-2.4,3.2-2.4c3.6,0,7.3,0,10.9,0c0.1,0,0.2,0,0.3,0c0-0.1,0-0.2,0-0.2
		c0-3.6,0-7.3,0-10.9c0-1.5,0.9-2.8,2.3-3.2C19-0.6,21.2,1,21.2,3.4c0,3.6,0,7.3,0,10.9c0,0.1,0,0.2,0,0.3c0.1,0,0.2,0,0.2,0
		c3.6,0,7.2,0,10.8,0c1.9,0,3.3,1.4,3.4,2.9c0,0,0,0,0,0.1c0,0.2,0,0.5,0,0.7c0,0,0,0,0,0.1c-0.2,1.6-1.5,2.9-3.4,2.9
		c-3.6,0-7.2,0-10.8,0c-0.1,0-0.2,0-0.2,0c0,0.1,0,0.2,0,0.2c0,2.2,0,4.3,0,6.5c0,1.5,0,3,0,4.5c0,1.5-1,2.7-2.3,3.2
		c-0.2,0.1-0.4,0.1-0.6,0.2c-0.2,0-0.5,0-0.7,0c-0.1,0-0.3-0.1-0.4-0.1c-1.5-0.4-2.6-1.7-2.6-3.3c0-3.6,0-7.3,0-10.9
		c0-0.1,0-0.2,0-0.2c-0.1,0-0.2,0-0.3,0c-3.6,0-7.3,0-10.9,0c-1.6,0-2.9-1.1-3.3-2.6c0-0.1-0.1-0.3-0.1-0.4C0,18,0,17.8,0,17.5z"/>
</g>
</svg>
