<svg version="1.1" id="alarmclock" xmlns="http://www.w3.org/2000/svg" xmlns:xlink="http://www.w3.org/1999/xlink" x="0px" y="0px"
	 viewBox="0 0 9.8 9.8" style="enable-background:new 0 0 9.8 9.8;" xml:space="preserve">
	<path d="M4.5,9.6c-0.3-0.1-0.7-0.1-1-0.3C1.4,8.6,0.1,6.2,1,4c0.5-1.3,1.7-2.3,3.1-2.6C6.5,0.9,8.8,2.6,9,5.1
		c0.2,2.3-1.4,4.3-3.7,4.6c0,0-0.1,0-0.1,0C5,9.6,4.8,9.6,4.5,9.6z M4.9,8.8c1.8,0,3.3-1.5,3.4-3.3c0-1.8-1.5-3.3-3.3-3.4
		c-1.8,0-3.3,1.5-3.4,3.3C1.5,7.3,3,8.8,4.9,8.8z"/>
	<path d="M2.8,0.1C3,0.3,3.3,0.4,3.6,0.5c0.1,0.1,0.2,0.2,0.3,0.3c-1.3,0.3-2.2,0.9-3,2C0.5,2.1,0.7,0.9,1.5,0.4
		C1.8,0.3,2,0.2,2.3,0.1C2.5,0.1,2.6,0.1,2.8,0.1z"/>
	<path d="M7.5,0.1c0.4,0.1,0.8,0.2,1.1,0.5c0.5,0.6,0.7,1.4,0.3,2.1c-0.7-1-1.7-1.7-2.9-2c0.2-0.3,0.5-0.5,0.9-0.6
		c0.1,0,0.2-0.1,0.3-0.1C7.2,0.1,7.3,0.1,7.5,0.1z"/>
	<path d="M4.9,5.5c0.6,0,1.2,0,1.8,0c0,0.2,0,0.4,0,0.6C5.9,6,5.1,6,4.3,6c0-1,0-1.9,0-2.9c0.2,0,0.4,0,0.6,0
		C4.9,3.9,4.9,4.7,4.9,5.5z"/>
</svg>
