<svg id="Bell" xmlns="http://www.w3.org/2000/svg" viewBox="0 0 33.8 40">
	<path id="bell-body" d="M16.9,0c0.2,0,0.5,0,0.7,0.1c1.6,0.3,2.6,1.6,2.6,3.1c0,0.4,0,0.9,0,1.3c0,0.1,0,0.2,0.2,0.2
	c2,0.5,3.8,1.4,5.3,2.8c1.5,1.4,2.4,3,3,4.8c0.4,1.3,0.5,2.5,0.5,3.8c0,3,0,6,0,9c0.5,2.3,1.6,4.2,3,6.1c0.4,0.6,0.9,1.2,1.3,1.8
	c0.5,0.7,0.1,1.5-0.7,1.7c-0.1,0-0.2,0-0.2,0c-10.5,0-21,0-31.4,0c-0.5,0-0.8-0.2-1-0.5c-0.2-0.4-0.2-0.7,0.1-1.1
	c0.7-0.9,1.3-1.8,2-2.8c1-1.5,1.8-3.2,2.2-5c0.1-0.5,0.1-1,0.1-1.4c0-2.6,0-5.2,0-7.8c0-1.6,0.2-3.1,0.8-4.5c1.1-2.8,3-4.8,5.8-6.1
	c0.7-0.3,1.5-0.6,2.3-0.8c0.1,0,0.2-0.1,0.2-0.2c0-0.5,0-1.1,0-1.6c0.1-1.4,1.3-2.6,2.7-2.8C16.5,0,16.7,0,16.9,0
	C16.9,0,16.9,0,16.9,0z"/>
	<path id="bell" d="M16.5,40c-0.4-0.1-0.8-0.1-1.2-0.2c-1.9-0.5-3.3-1.6-4.2-3.2c0,0,0-0.1-0.1-0.1c3.8,0,7.7,0,11.5,0
	c-0.2,0.5-0.5,0.9-0.8,1.3c-1.1,1.3-2.5,2-4.2,2.2c-0.1,0-0.3,0-0.4,0C17,40,16.7,40,16.5,40z"/>
</svg>
