<svg id="Gear" xmlns="http://www.w3.org/2000/svg" viewBox="0 0 10 10">
	<path id="gear" d="M5.5,0c0.1,0,0.1,0,0.2,0s0.1,0,0.2,0c0.3,0.1,0.7,0.2,1,0.3C7,0.4,7,0.5,7,0.5c0,0.1,0,0.3,0,0.4s0,0.2,0,0.3
	c0.1,0.3,0.4,0.5,0.7,0.7C7.9,2,8.2,2,8.4,1.9c0.1,0,0.2-0.1,0.3-0.1s0.1,0,0.2,0.1c0.2,0.3,0.4,0.6,0.6,1c0.2,0.3,0.1,0.4-0.2,0.6
	c0,0,0,0-0.1,0C9.1,3.8,9.2,3.7,9.1,3.8C9,4.1,9,4.4,9.1,4.8C9.2,5,9.3,5.1,9.4,5.2C9.6,5.3,9.8,5.4,10,5.5c0,0.1,0,0.2,0,0.2v0.1
	C9.9,6.2,9.7,6.6,9.6,6.9C9.6,7,9.6,7,9.5,7C9.3,7,9.2,7,9.1,7C9,7,8.9,7,8.8,7C8.4,7.1,8.2,7.4,8,7.7C7.9,8,7.9,8.2,8.1,8.5
	c0,0.1,0.1,0.1,0.1,0.2c0,0.1,0,0.2-0.2,0.3C7.7,9.3,7.3,9.5,6.9,9.6c-0.1,0-0.1,0-0.2,0C6.6,9.5,6.5,9.4,6.5,9.3
	C6.4,9.2,6.3,9.1,6.2,9.1C5.9,9,5.6,9,5.3,9.1C5,9.2,4.8,9.3,4.7,9.6c0,0.1-0.1,0.2-0.1,0.3C4.5,10,4.5,10,4.4,10
	C4,9.9,3.6,9.8,3.3,9.7C3,9.6,2.9,9.5,3,9.2V9.1C3,9,3,8.8,3,8.7C2.9,8.4,2.7,8.2,2.4,8.1C2.1,7.9,1.8,7.9,1.5,8
	C1.4,8,1.3,8.1,1.2,8.1C1.1,8.2,1,8.1,1,8C0.8,7.7,0.6,7.4,0.4,7.1C0.3,6.8,0.3,6.7,0.6,6.5c0,0,0,0,0.1,0C0.9,6.3,1,6.1,1.1,5.8
	c0.1-0.4-0.1-0.9-0.5-1C0.4,4.7,0.2,4.6,0,4.5c0-0.1,0-0.2,0-0.2V4.2c0.1-0.3,0.2-0.7,0.3-1C0.3,3.1,0.4,3,0.5,3s0.3,0,0.4,0
	s0.2,0,0.3,0C1.6,2.8,1.8,2.5,2,2.2C2,2,2.1,1.8,2,1.6C1.9,1.5,1.9,1.3,1.9,1.2C1.9,1.1,1.9,1,2,1c0.3-0.2,0.6-0.4,0.9-0.5
	c0.3-0.2,0.4-0.1,0.7,0.2l0,0c0.1,0.1,0.1,0.2,0.2,0.2C4.1,1,4.4,1,4.7,0.9c0.2-0.1,0.4-0.2,0.5-0.4C5.3,0.4,5.4,0.2,5.5,0z
	 M5.1,2.3C3.6,2.3,2.4,3.5,2.4,5c0,1.4,1.2,2.6,2.7,2.6c1.4,0,2.6-1.2,2.6-2.7C7.7,3.5,6.5,2.3,5.1,2.3z"/>
</svg>
