<?xml version="1.0" encoding="utf-8"?>
<!-- Generator: Adobe Illustrator 20.1.0, SVG Export Plug-In . SVG Version: 6.00 Build 0)  -->
<svg version="1.1" id="Layer_1" xmlns="http://www.w3.org/2000/svg" xmlns:xlink="http://www.w3.org/1999/xlink" x="0px" y="0px"
	 viewBox="0 0 9.8 9.8" style="enable-background:new 0 0 9.8 9.8;" xml:space="preserve">
<g>
	<path d="M4.9,0c2.7,0,4.9,2.2,4.9,4.9c0,2.7-2.2,4.9-4.9,4.9C2.2,9.8,0,7.6,0,4.9C0,2.2,2.2,0,4.9,0z M4.9,0.9c-2.2,0-4,1.8-4,4
		c0,2.2,1.8,4,4,4c2.2,0,4-1.8,4-4C8.8,2.7,7.1,0.9,4.9,0.9z"/>
	<path d="M5.8,6.2c0,0.2,0,0.3-0.1,0.4C5.5,6.8,5.3,7,5.1,7.1C4.9,7.3,4.6,7.4,4.3,7.4c-0.1,0-0.3,0-0.4-0.1C3.6,7.2,3.5,7,3.6,6.7
		c0.3-0.8,0.6-1.6,0.9-2.4c0-0.1,0.1-0.1,0-0.2c-0.1-0.1-0.1,0-0.2,0c-0.1,0-0.1,0.1-0.2,0.2C3.9,4.5,3.8,4.7,3.6,4.8
		c0-0.2,0-0.3,0.1-0.4C4,4,4.5,3.7,5,3.6C5.3,3.6,5.7,3.7,5.7,4c0,0.1,0,0.2,0,0.3C5.4,5.1,5.1,5.9,4.8,6.7c0,0.1-0.1,0.1,0,0.2
		c0.1,0,0.1,0,0.2,0c0.1,0,0.2-0.1,0.2-0.2C5.4,6.5,5.6,6.4,5.8,6.2C5.7,6.2,5.7,6.2,5.8,6.2z"/>
	<path d="M5.6,2.2c0.1,0,0.3,0.1,0.4,0.1c0.3,0.2,0.3,0.6,0,0.8c-0.3,0.2-0.5,0.2-0.8,0c-0.3-0.2-0.3-0.6,0-0.8
		C5.3,2.2,5.5,2.2,5.6,2.2z"/>
</g>
</svg>
